<svg width="658" height="576" viewBox="0 0 658 576" fill="none" xmlns="http://www.w3.org/2000/svg">
<path d="M655.719 353.08C641.864 327.492 622.226 305.491 598.369 288.83C596.664 287.653 594.697 286.911 592.639 286.67C595.449 268.19 594.859 247.77 584.429 232.37C559.679 195.83 433.579 233.54 433.579 233.54C345.189 202.9 268.579 241.79 268.579 241.79C268.579 241.79 170.759 226.47 125.979 238.26C104.859 243.82 99.7292 265.36 100.209 286.58H100.139C98.2667 286.577 96.4176 286.996 94.7295 287.806C93.0414 288.616 91.5578 289.797 90.3892 291.26C78.4792 306.14 42.4992 351.97 43.4792 360.82C44.6592 371.43 83.5493 509.31 81.7893 575.9L625.079 569.9C625.079 569.9 634.079 435.9 656.589 362.55C657.565 359.403 657.252 355.997 655.719 353.08Z" fill="#3F3D56"/>
<path opacity="0.1" d="M88.8693 361.42L111.259 316.63L130.109 403.84L130.329 444.32L88.8693 361.42Z" fill="black"/>
<path opacity="0.1" d="M602.689 361.42L580.299 316.63L554.329 399.32L559.329 446.32L602.689 361.42Z" fill="black"/>
<path d="M128.469 401.46L554.369 399.13L559.089 446.27L130.109 445.09L128.469 401.46Z" fill="#3F3D56"/>
<path opacity="0.1" d="M128.469 401.46L554.369 399.13L559.089 446.27L130.109 445.09L128.469 401.46Z" fill="black"/>
<path opacity="0.1" d="M550.859 441.68H138.799C133.017 441.68 128.329 446.368 128.329 452.15V481.89C128.329 487.672 133.017 492.36 138.799 492.36H550.859C556.642 492.36 561.329 487.672 561.329 481.89V452.15C561.329 446.368 556.642 441.68 550.859 441.68Z" fill="white"/>
<path d="M472.719 272.14C472.719 272.14 471.279 270.14 469.579 271.22C468.769 271.75 464.959 276.55 461.219 281.43C459.379 283.82 457.549 286.23 456.099 288.15C454.309 290.51 453.099 292.15 453.099 292.15L452.379 293.5L448.009 301.67L443.899 309.35L442.899 312.97L456.779 317.69L472.579 313.38L471.899 310.45L471.779 309.95L471.909 303.21L472.269 284.21L472.439 275.66V274.66L472.719 272.14Z" fill="#FFE09C"/>
<path d="M440.939 318.98C440.939 318.98 455.939 324.33 463.629 321.53C463.629 321.53 470.279 319.41 472.899 317.36C472.899 317.36 475.689 315.9 471.899 311.14C471.899 311.14 462.189 317.09 452.999 314.75L443.809 312.4L440.939 318.98Z" fill="#E7C4C3"/>
<path d="M457.67 312.211C460.01 310.84 460.965 308.122 459.803 306.139C458.642 304.157 455.804 303.662 453.464 305.033C451.124 306.404 450.169 309.122 451.331 311.104C452.493 313.086 455.331 313.582 457.67 312.211Z" fill="#FF7F8E"/>
<path d="M467.646 300.251C469.985 298.88 470.94 296.162 469.779 294.18C468.617 292.198 465.779 291.702 463.439 293.073C461.1 294.444 460.145 297.162 461.306 299.145C462.468 301.127 465.306 301.622 467.646 300.251Z" fill="#FF7F8E"/>
<path d="M471.899 303.21C471.146 302.896 470.328 302.765 469.515 302.829C468.701 302.894 467.914 303.151 467.219 303.58C464.879 304.95 463.919 307.67 465.089 309.65C466.259 311.63 469.089 312.13 471.419 310.76C471.579 310.66 471.739 310.56 471.889 310.45L471.769 309.95L471.899 303.21Z" fill="#FF7F8E"/>
<path d="M454.929 295.28C454.651 294.82 454.28 294.424 453.839 294.118C453.398 293.811 452.897 293.601 452.369 293.5L447.999 301.67C448.764 302.015 449.602 302.166 450.439 302.11C451.276 302.054 452.087 301.793 452.799 301.35C455.139 299.98 456.089 297.26 454.929 295.28Z" fill="#FF7F8E"/>
<path d="M464.649 283.31C464.288 282.732 463.785 282.256 463.188 281.927C462.592 281.598 461.921 281.427 461.239 281.43C459.399 283.82 457.569 286.23 456.119 288.15L456.179 288.27C457.339 290.27 460.179 290.74 462.519 289.37C464.859 288 465.789 285.29 464.649 283.31Z" fill="#FF7F8E"/>
<path d="M472.429 275.65C471.913 275.779 471.418 275.981 470.959 276.25C468.619 277.62 467.669 280.34 468.829 282.32C469.192 282.901 469.698 283.379 470.299 283.708C470.899 284.037 471.574 284.207 472.259 284.2L472.429 275.65Z" fill="#FF7F8E"/>
<path d="M449.139 308.44L448.339 307.09C449.537 306.732 450.643 306.118 451.579 305.29C451.639 305.23 451.689 305.16 451.739 305.1C452.739 303.84 452.529 306.46 452.529 306.46C452.529 306.46 450.069 308.55 449.139 308.44Z" fill="#94CC79"/>
<path d="M460.939 306.35L460.139 304.99C461.336 304.63 462.441 304.016 463.379 303.19C463.379 303.13 463.489 303.07 463.539 303C464.539 301.75 464.329 304.36 464.329 304.36C464.329 304.36 461.869 306.46 460.939 306.35Z" fill="#94CC79"/>
<path d="M459.859 300.75L459.059 299.39C460.255 299.033 461.361 298.423 462.299 297.6C462.349 297.53 462.409 297.47 462.459 297.41C463.459 296.15 463.249 298.76 463.249 298.76C463.249 298.76 460.789 300.84 459.859 300.75Z" fill="#94CC79"/>
<path d="M461.289 290.65L460.489 289.29C461.686 288.93 462.791 288.316 463.729 287.49C463.729 287.43 463.839 287.37 463.889 287.3C464.889 286.04 464.679 288.66 464.679 288.66C464.679 288.66 462.219 290.75 461.289 290.65Z" fill="#94CC79"/>
<path d="M468.059 278.43L467.269 277.07C468.464 276.711 469.566 276.097 470.499 275.27C470.558 275.211 470.611 275.148 470.659 275.08C471.659 273.83 471.459 276.44 471.459 276.44C471.459 276.44 468.989 278.53 468.059 278.43Z" fill="#94CC79"/>
<path d="M467.299 290.9L466.499 289.54C467.696 289.186 468.802 288.575 469.739 287.75C469.739 287.68 469.849 287.62 469.899 287.56C470.899 286.3 470.689 288.91 470.689 288.91C470.689 288.91 468.229 291.01 467.299 290.9Z" fill="#94CC79"/>
<path d="M438.479 314.75C438.479 314.75 436.559 319.75 440.939 318.95C442.888 316.69 444.221 313.966 444.809 311.04C444.809 311.04 454.279 290.29 457.079 288.39C457.079 288.39 469.419 271.52 470.749 271.27C470.749 271.27 471.179 269.63 466.869 273.1C462.559 276.57 453.119 289.93 453.119 289.93L444.119 304.6L441.999 310.45L438.479 314.75Z" fill="#E7C4C3"/>
<path opacity="0.2" d="M438.479 314.75C438.479 314.75 436.559 319.75 440.939 318.95C442.888 316.69 444.221 313.966 444.809 311.04C444.809 311.04 454.279 290.29 457.079 288.39C457.079 288.39 469.419 271.52 470.749 271.27C470.749 271.27 471.179 269.63 466.869 273.1C462.559 276.57 453.119 289.93 453.119 289.93L444.119 304.6L441.999 310.45L438.479 314.75Z" fill="white"/>
<path d="M289.729 416.32C291.38 421.743 293.411 427.043 295.809 432.18C302.695 430.74 309.469 428.808 316.079 426.4C316.289 426.33 312.289 421.1 311.869 420.67C310.24 418.87 308.299 417.379 306.139 416.27C304.029 415.35 301.429 416.05 299.139 416.17C296.019 416.33 292.883 416.38 289.729 416.32Z" fill="#FBBEBE"/>
<path d="M306.179 424.53C302.739 423.45 300.639 419.98 299.239 416.64C297.839 413.3 296.709 409.64 294.049 407.2C293.544 407.277 293.066 407.478 292.658 407.785C292.249 408.092 291.923 408.496 291.709 408.96C291.294 409.897 290.83 410.812 290.319 411.7C289.219 413.3 287.319 414.08 285.869 415.44C284.419 416.8 283.609 418.87 282.099 420.24C280.199 421.96 277.519 422.39 275.029 422.96C271.172 423.836 267.447 425.214 263.949 427.06C262.662 427.837 261.285 428.455 259.849 428.9C258.268 429.208 256.648 429.262 255.049 429.06L244.049 428.28C243.07 428.154 242.076 428.195 241.109 428.4C239.997 428.806 239.051 429.568 238.417 430.569C237.784 431.569 237.5 432.751 237.609 433.93C237.75 435.105 238.132 436.238 238.731 437.258C239.33 438.278 240.133 439.164 241.089 439.86C243.012 441.226 245.129 442.295 247.369 443.03C256.965 446.657 266.846 449.48 276.909 451.47V453.65C283.905 457.098 291.6 458.891 299.399 458.89C299.975 458.931 300.551 458.831 301.079 458.6C301.801 458.078 302.306 457.309 302.499 456.44C305.147 448.695 306.693 440.616 307.089 432.44C307.285 430.372 307.126 428.285 306.619 426.27C306.019 424.27 308.079 425.12 306.169 424.34" fill="#2F2E41"/>
<path d="M517.499 382.99C484.829 384.99 452.499 375.38 419.839 374.36C415.773 374.103 411.69 374.365 407.689 375.14C403.489 376.08 399.569 377.98 395.689 379.8C378.139 387.96 359.999 394.72 341.869 401.47L321.049 409.23C316.889 410.78 312.579 412.35 308.149 412.08C306.149 411.96 303.719 411.66 302.609 413.31C299.219 418.31 300.819 425.7 303.059 431.31C303.779 433.13 305.059 435.11 306.959 435.31C308.329 435.45 309.609 434.66 310.959 434.31C314.749 433.31 318.529 435.85 322.429 436.26C327.249 436.77 331.719 434.03 336.269 432.35C343.809 429.56 352.059 429.65 359.989 428.35C373.289 426.13 385.609 419.96 397.129 412.93C401.509 410.25 405.949 407.38 410.989 406.4C416.779 405.27 422.729 406.76 428.419 408.4C441.962 412.23 455.294 416.769 468.359 422C475.239 424.76 482.079 427.71 489.239 429.62C504.728 433.693 521.11 432.737 536.019 426.89C541.239 424.82 546.929 421.17 547.229 415.53C547.399 412.31 544.899 409.53 543.229 406.73C542.169 404.96 541.099 403.2 539.929 401.5C534.259 393.24 527.419 382.4 517.499 382.99Z" fill="#2F2E41"/>
<path opacity="0.1" d="M517.499 382.99C484.829 384.99 452.499 375.38 419.839 374.36C415.773 374.103 411.69 374.365 407.689 375.14C403.489 376.08 399.569 377.98 395.689 379.8C378.139 387.96 359.999 394.72 341.869 401.47L321.049 409.23C316.889 410.78 312.579 412.35 308.149 412.08C306.149 411.96 303.719 411.66 302.609 413.31C299.219 418.31 300.819 425.7 303.059 431.31C303.779 433.13 305.059 435.11 306.959 435.31C308.329 435.45 309.609 434.66 310.959 434.31C314.749 433.31 318.529 435.85 322.429 436.26C327.249 436.77 331.719 434.03 336.269 432.35C343.809 429.56 352.059 429.65 359.989 428.35C373.289 426.13 385.609 419.96 397.129 412.93C401.509 410.25 405.949 407.38 410.989 406.4C416.779 405.27 422.729 406.76 428.419 408.4C441.962 412.23 455.294 416.769 468.359 422C475.239 424.76 482.079 427.71 489.239 429.62C504.728 433.693 521.11 432.737 536.019 426.89C541.239 424.82 546.929 421.17 547.229 415.53C547.399 412.31 544.899 409.53 543.229 406.73C542.169 404.96 541.099 403.2 539.929 401.5C534.259 393.24 527.419 382.4 517.499 382.99Z" fill="black"/>
<path d="M352.449 417.91C357.556 419.65 362.716 421.253 367.929 422.72C370.839 417.94 376.289 414.61 377.529 409.15C377.581 409.029 377.607 408.899 377.605 408.767C377.603 408.636 377.573 408.506 377.517 408.387C377.462 408.268 377.381 408.162 377.282 408.077C377.182 407.991 377.065 407.927 376.939 407.89C373.214 405.827 369.079 404.615 364.829 404.34C361.469 404.13 359.939 407.63 358.409 410.1C357.799 411.09 353.819 418.38 352.449 417.91Z" fill="#FBBEBE"/>
<path d="M359.649 414.42C358.122 414.162 356.665 413.589 355.371 412.739C354.077 411.889 352.973 410.779 352.129 409.48C351.409 408.22 350.639 406.48 349.199 406.61C347.759 406.74 347.199 408.3 346.939 409.61C345.97 414.568 344.561 419.431 342.729 424.14C340.891 428.859 337.774 432.972 333.729 436.02C331.829 437.33 329.729 438.32 327.869 439.7C326.199 440.93 324.749 442.49 322.869 443.44C321.641 444.009 320.37 444.484 319.069 444.86C317.161 445.533 315.336 446.422 313.629 447.51C312.131 448.377 310.862 449.591 309.929 451.05C309.458 451.789 309.183 452.635 309.128 453.51C309.074 454.384 309.243 455.259 309.619 456.05C310.015 456.696 310.543 457.252 311.168 457.679C311.794 458.107 312.503 458.397 313.249 458.53C314.739 458.79 316.258 458.831 317.759 458.65C323.709 458.21 329.659 457.65 335.609 457.15C338.124 456.998 340.623 456.663 343.089 456.15C344.399 455.83 345.669 455.42 346.969 455.08C349.195 454.508 351.474 454.173 353.769 454.08C354.441 454.027 355.118 454.088 355.769 454.26C357.149 454.71 358.119 456.08 359.549 456.36C360.462 456.447 361.382 456.324 362.239 456C366.519 454.83 371.029 454.86 375.459 454.62C377.459 454.52 379.699 454.15 380.599 452.4C381.719 450.22 379.859 447.78 379.129 445.4C378.757 443.904 378.549 442.371 378.509 440.83C378.172 437.026 377.056 433.333 375.229 429.98C373.719 427.2 371.649 424.12 372.709 421.13C373.069 420.13 373.789 419.13 373.709 418.13C373.369 413.34 362.359 414.99 359.649 414.42Z" fill="#2F2E41"/>
<path d="M468.509 330.58C462.727 328.025 458.095 323.419 455.509 317.65C454.959 316.41 454.509 315.12 453.989 313.87C452.274 309.709 449.61 306.007 446.209 303.06C445.844 302.661 445.396 302.345 444.898 302.134C444.399 301.924 443.86 301.823 443.319 301.84C442.796 301.999 442.325 302.294 441.952 302.695C441.58 303.095 441.32 303.587 441.199 304.12C440.9 305.258 440.825 306.443 440.979 307.61C441.271 310.358 441.746 313.084 442.399 315.77L443.979 322.98C444.174 324.092 444.51 325.174 444.979 326.2C445.658 327.415 446.556 328.494 447.629 329.38C449.079 330.72 450.549 332.01 452.039 333.27C454.117 335.258 456.822 336.46 459.689 336.67C466.169 337.87 472.769 339.61 478.249 343.84C478.179 343.84 478.249 339 478.129 338.45C477.879 337 477.679 335.56 476.739 334.58C474.589 332.38 471.099 331.75 468.509 330.58Z" fill="#FBBEBE"/>
<path opacity="0.1" d="M468.509 330.58C462.727 328.025 458.095 323.419 455.509 317.65C454.959 316.41 454.509 315.12 453.989 313.87C452.274 309.709 449.61 306.007 446.209 303.06C445.844 302.661 445.396 302.345 444.898 302.134C444.399 301.924 443.86 301.823 443.319 301.84C442.796 301.999 442.325 302.294 441.952 302.695C441.58 303.095 441.32 303.587 441.199 304.12C440.9 305.258 440.825 306.443 440.979 307.61C441.271 310.358 441.746 313.084 442.399 315.77L443.979 322.98C444.174 324.092 444.51 325.174 444.979 326.2C445.658 327.415 446.556 328.494 447.629 329.38C449.079 330.72 450.549 332.01 452.039 333.27C454.117 335.258 456.822 336.46 459.689 336.67C466.169 337.87 472.769 339.61 478.249 343.84C478.179 343.84 478.249 339 478.129 338.45C477.879 337 477.679 335.56 476.739 334.58C474.589 332.38 471.099 331.75 468.509 330.58Z" fill="black"/>
<path d="M535.039 275.37C539.43 275.37 542.989 271.793 542.989 267.38C542.989 262.967 539.43 259.39 535.039 259.39C530.649 259.39 527.089 262.967 527.089 267.38C527.089 271.793 530.649 275.37 535.039 275.37Z" fill="#2F2E41"/>
<path d="M530.119 262.55C527.969 262.31 525.569 262.14 523.839 263.46C522.921 264.267 522.188 265.263 521.689 266.38C519.911 269.438 518.523 272.707 517.559 276.11C516.849 279.03 516.729 282.11 515.849 284.95C514.219 290.27 510.049 294.76 509.569 300.31C509.359 302.79 509.779 305.7 507.959 307.4C507.515 307.773 507.04 308.108 506.539 308.4C505.282 309.242 504.215 310.339 503.409 311.62C502.863 312.77 502.111 313.811 501.189 314.69C499.569 315.89 496.889 315.76 496.089 317.62C495.289 319.48 497.349 321.62 496.869 323.62C496.479 325.26 494.649 326.01 493.389 327.13C491.769 328.56 491.029 330.71 490.389 332.77C487.732 333.272 484.998 333.194 482.374 332.539C479.75 331.885 477.299 330.671 475.189 328.98C477.399 334.44 477.449 340.47 477.549 346.37C477.549 348.28 477.549 350.43 476.149 351.76C482.479 351.9 488.649 353.61 494.819 355.01C497.519 355.62 500.449 356.15 502.959 355.01C504.376 354.247 505.641 353.23 506.689 352.01C510.049 348.6 513.569 344.89 514.389 340.16C514.849 337.52 514.389 334.8 514.529 332.16C514.838 328.844 515.509 325.571 516.529 322.4C518.309 315.825 519.503 309.105 520.099 302.32C520.459 298.14 524.099 294.77 525.979 291.02C529.579 283.96 533.249 276.6 533.519 268.67C533.649 266.05 532.749 262.84 530.119 262.55Z" fill="#2F2E41"/>
<path opacity="0.1" d="M530.119 262.55C527.969 262.31 525.569 262.14 523.839 263.46C522.921 264.267 522.188 265.263 521.689 266.38C519.911 269.438 518.523 272.707 517.559 276.11C516.849 279.03 516.729 282.11 515.849 284.95C514.219 290.27 510.049 294.76 509.569 300.31C509.359 302.79 509.779 305.7 507.959 307.4C507.515 307.773 507.04 308.108 506.539 308.4C505.282 309.242 504.215 310.339 503.409 311.62C502.863 312.77 502.111 313.811 501.189 314.69C499.569 315.89 496.889 315.76 496.089 317.62C495.289 319.48 497.349 321.62 496.869 323.62C496.479 325.26 494.649 326.01 493.389 327.13C491.769 328.56 491.029 330.71 490.389 332.77C487.732 333.272 484.998 333.194 482.374 332.539C479.75 331.885 477.299 330.671 475.189 328.98C477.399 334.44 477.449 340.47 477.549 346.37C477.549 348.28 477.549 350.43 476.149 351.76C482.479 351.9 488.649 353.61 494.819 355.01C497.519 355.62 500.449 356.15 502.959 355.01C504.376 354.247 505.641 353.23 506.689 352.01C510.049 348.6 513.569 344.89 514.389 340.16C514.849 337.52 514.389 334.8 514.529 332.16C514.838 328.844 515.509 325.571 516.529 322.4C518.309 315.825 519.503 309.105 520.099 302.32C520.459 298.14 524.099 294.77 525.979 291.02C529.579 283.96 533.249 276.6 533.519 268.67C533.649 266.05 532.749 262.84 530.119 262.55Z" fill="black"/>
<path d="M522.649 389.87C515.849 386.63 510.869 380.6 505.369 375.43C494.869 365.57 482.019 358.59 470.979 349.34C463.659 343.22 457.119 336.08 449.079 330.95C442.003 326.452 433.986 323.646 425.649 322.75C424.694 322.58 423.713 322.628 422.779 322.89C421.725 323.356 420.807 324.082 420.109 325C416.547 329.021 413.379 333.374 410.649 338C396.649 361.75 376.769 381.75 360.299 403.82C359.779 404.345 359.471 405.044 359.434 405.782C359.397 406.52 359.634 407.246 360.099 407.82L363.449 414.38C365.319 418.06 368.329 422.38 372.369 421.61C374.219 421.27 375.689 419.91 377.049 418.61L392.049 404.24L407.819 389.16C417.059 380.33 426.449 371.29 432.479 360C437.179 368.16 445.539 373.5 451.269 381C453.449 383.84 455.269 387 457.169 390C460.289 394.82 463.839 399.35 467.379 403.87L485.469 426.96C487.929 430.1 490.469 433.32 493.839 435.45C498.129 438.16 503.339 438.88 508.379 439.33C515.175 439.937 521.998 440.184 528.819 440.07C534.019 439.98 539.379 439.64 544.049 437.33C548.719 435.02 552.549 430.33 552.309 425.05C552.023 422.337 551.131 419.722 549.699 417.4C543.279 405.5 534.829 395.65 522.649 389.87Z" fill="#2F2E41"/>
<path d="M539.929 279.06C543.304 279.06 546.039 276.307 546.039 272.91C546.039 269.513 543.304 266.76 539.929 266.76C536.555 266.76 533.819 269.513 533.819 272.91C533.819 276.307 536.555 279.06 539.929 279.06Z" fill="#E8E8F0"/>
<path d="M538.579 268.29C539.953 271.028 540.194 274.196 539.249 277.11C538.304 279.985 536.982 282.722 535.319 285.25C533.888 287.86 532.175 290.305 530.209 292.54C539.639 293 548.789 289.3 557.109 284.81C563.809 281.21 570.489 276.75 574.109 270.01C573.045 270.268 571.939 270.299 570.862 270.1C569.785 269.902 568.762 269.48 567.859 268.86C566.064 267.606 564.454 266.105 563.079 264.4L558.339 259.07C557.227 257.912 556.251 256.63 555.429 255.25C554.402 253.362 553.966 251.209 554.179 249.07C552.298 251.041 550.194 252.786 547.909 254.27C544.529 256.47 540.799 258.07 537.409 260.27C536.209 261.04 533.529 262.27 534.219 263.86C534.909 265.45 537.649 266.61 538.579 268.29Z" fill="#FBBEBE"/>
<path opacity="0.1" d="M538.579 268.29C539.953 271.028 540.194 274.196 539.249 277.11C538.304 279.985 536.982 282.722 535.319 285.25C533.888 287.86 532.175 290.305 530.209 292.54C539.639 293 548.789 289.3 557.109 284.81C563.809 281.21 570.489 276.75 574.109 270.01C573.045 270.268 571.939 270.299 570.862 270.1C569.785 269.902 568.762 269.48 567.859 268.86C566.064 267.606 564.454 266.105 563.079 264.4L558.339 259.07C557.227 257.912 556.251 256.63 555.429 255.25C554.402 253.362 553.966 251.209 554.179 249.07C552.298 251.041 550.194 252.786 547.909 254.27C544.529 256.47 540.799 258.07 537.409 260.27C536.209 261.04 533.529 262.27 534.219 263.86C534.909 265.45 537.649 266.61 538.579 268.29Z" fill="black"/>
<path d="M538.709 269.22C536.939 272.22 536.559 275.72 538.709 278.44C538.979 278.78 539.969 280.88 540.399 280.9C540.815 280.858 541.201 280.662 541.479 280.35C543.769 278.26 545.479 275.59 547.479 273.22C549.479 270.85 552.029 268.7 555.089 268.22C558.779 267.65 562.349 269.6 565.579 271.49C566.984 272.175 568.21 273.178 569.159 274.42C569.84 275.651 570.243 277.016 570.339 278.42C571.449 286.83 571.429 295.35 571.399 303.83C571.399 309.97 571.399 316.14 570.199 322.16C569.599 325.28 568.699 328.33 568.269 331.47C567.961 334.242 567.837 337.032 567.899 339.82V351.5C567.818 353.643 567.969 355.789 568.349 357.9C568.899 360.46 570.109 362.82 570.919 365.31C571.756 368.172 572.328 371.104 572.629 374.07L574.229 386.16C574.729 389.97 575.099 394.16 572.799 397.16C571.799 398.54 570.389 399.65 569.339 401.03C565.339 406.17 566.649 413.52 564.999 419.81C563.701 424.415 561.029 428.514 557.339 431.56C554.509 433.96 550.859 435.84 547.229 435.17C542.319 434.26 539.369 429.17 538.029 424.3C536.689 419.43 536.209 414.2 533.309 410.12C530.939 406.78 527.309 404.68 523.949 402.3C520.589 399.92 517.389 396.85 516.669 392.81C516.349 391.05 516.549 389.24 516.359 387.46C516.098 385.204 515.234 383.06 513.858 381.252C512.482 379.445 510.645 378.042 508.539 377.19C506.029 376.19 502.929 375.86 501.539 373.56C505.199 371.5 507.619 367.69 508.899 363.68C510.179 359.67 510.439 355.41 510.689 351.21L511.529 337.16C511.899 330.88 512.069 324.66 514.839 319.02C516.069 316.49 517.609 314.13 518.899 311.64C520.601 308.136 522.054 304.517 523.249 300.81C525.249 295.05 527.249 289.29 529.049 283.46C529.766 280.644 530.834 277.929 532.229 275.38C533.649 272.94 535.869 269.75 538.709 269.22Z" fill="#6C63FF"/>
<path d="M507.509 360.5L511.229 360.63L512.019 355.02C512.12 353.895 512.383 352.79 512.799 351.74C513.415 350.633 514.131 349.585 514.939 348.61C518.599 343.44 518.329 336.61 519.239 330.3C520.449 321.92 523.949 314.08 527.409 306.37L534.649 290.28C536.083 287.547 536.773 284.484 536.649 281.4C536.719 278.91 537.449 269.87 537.519 267.4C537.519 266.48 535.519 266.99 535.069 266.17C534.169 264.38 532.929 269.23 531.239 270.29C529.549 271.35 528.609 273.29 527.899 275.15C526.339 279.2 525.389 283.46 523.899 287.55C522.409 291.64 520.429 295.66 517.159 298.55C515.679 299.85 513.979 300.87 512.579 302.26C508.089 306.7 507.649 313.71 507.489 320.04C507.409 323.75 506.649 360.5 507.509 360.5Z" fill="#2F2E41"/>
<path d="M561.029 262.51C557.419 263.93 555.439 267.85 554.429 271.61C553.419 275.37 552.999 279.39 551.059 282.76C546.519 290.65 534.959 292.95 531.769 301.48C530.769 304.27 530.769 307.33 530.479 310.3C529.899 316.41 527.889 322.3 527.299 328.42C526.984 333.167 527.095 337.933 527.629 342.66L531.629 390.85C532.219 397.85 532.199 405.28 530.419 412.04C534.509 412.83 538.769 411.77 542.559 410.04C546.349 408.31 549.819 405.93 553.469 403.92C559.749 400.45 566.679 398 572.179 393.38C573.176 392.605 574.029 391.66 574.699 390.59C575.799 388.69 575.899 386.38 576.419 384.24C576.893 382.529 577.499 380.858 578.229 379.24C580.244 374.383 582 369.423 583.489 364.38C584.512 361.036 585.317 357.629 585.899 354.18C586.339 351.44 586.579 348.66 586.819 345.89C587.112 341.55 587.973 337.267 589.379 333.15C592.893 323.337 594.886 313.045 595.289 302.63C595.402 301.126 595.298 299.614 594.979 298.14C594.362 296.353 593.544 294.642 592.539 293.04C590.859 289.88 589.849 286.4 588.269 283.18C584.689 275.93 578.359 270.42 571.739 265.81C568.519 263.56 564.719 261.07 561.029 262.51Z" fill="#2F2E41"/>
<path d="M476.559 341.13C473.687 339.623 471.088 337.645 468.869 335.28C467.869 334.1 467.029 332.77 465.999 331.61C463.403 328.836 460.029 326.912 456.319 326.09C452.639 325.282 448.876 324.916 445.109 325C442.588 324.839 440.06 325.144 437.649 325.9C436.444 326.294 435.358 326.988 434.494 327.917C433.63 328.846 433.016 329.979 432.709 331.21C432.159 334.21 434.119 337.12 436.469 339.05C438.658 340.835 441.233 342.085 443.989 342.7C446.236 343.089 448.503 343.352 450.779 343.49C464.159 344.89 476.099 352.17 487.779 358.8C498.079 364.633 508.576 370.08 519.269 375.14C519.691 371.935 519.868 368.702 519.799 365.47C519.739 363.06 519.619 359.38 517.339 357.96C514.689 356.31 510.339 355.96 507.339 354.96C500.447 352.7 493.715 349.977 487.189 346.81C483.583 345.043 480.039 343.15 476.559 341.13Z" fill="#FBBEBE"/>
<path d="M558.722 248.193C562.088 235.39 554.494 222.297 541.76 218.949C529.027 215.601 515.975 223.266 512.609 236.069C509.243 248.873 516.837 261.966 529.571 265.313C542.305 268.661 555.356 260.996 558.722 248.193Z" fill="#FBBEBE"/>
<path d="M567.849 289.69C565.719 292.17 564.649 295.37 563.219 298.31C560.279 304.37 555.659 309.57 553.349 315.91C550.909 322.59 550.989 330.53 546.209 335.78C545.379 336.69 544.379 337.57 544.139 338.78C544.106 339.515 544.023 340.247 543.889 340.97C543.209 342.87 540.089 342.97 539.509 344.91C539.339 345.48 539.429 346.1 539.219 346.66C538.739 347.91 537.089 348.1 535.979 348.86C533.659 350.43 534.129 354.07 532.479 356.34C531.755 357.189 530.817 357.83 529.762 358.196C528.707 358.561 527.574 358.639 526.479 358.42C524.312 357.975 522.227 357.196 520.299 356.11C519.615 355.73 518.859 355.495 518.079 355.42C517.155 355.449 516.261 355.752 515.509 356.29C511.109 359.09 509.039 364.64 509.069 369.88C509.099 375.12 510.899 380.16 512.739 385.06C512.994 385.886 513.408 386.654 513.959 387.32C515.419 388.86 517.959 388.62 519.899 387.76C521.839 386.9 523.599 385.55 525.679 385.17C529.369 384.5 532.979 387.04 536.679 386.83C539.419 386.67 541.849 385.08 544.119 383.54C547.759 381.08 551.459 378.54 554.119 375.06C555.759 372.92 556.959 370.49 558.389 368.2C560.219 365.41 562.223 362.738 564.389 360.2L578.129 343.38C579.508 341.787 580.746 340.077 581.829 338.27C583.08 335.829 584.046 333.252 584.709 330.59C586.019 326.1 587.339 321.59 587.559 316.9C587.636 313.052 587.3 309.207 586.559 305.43C586.085 301.666 585.075 297.988 583.559 294.51C580.729 288.27 573.459 283.14 567.849 289.69Z" fill="#2F2E41"/>
<path d="M609.409 278.99C610.509 274.885 610.619 270.578 609.729 266.423C608.839 262.268 606.974 258.384 604.289 255.09C607.939 239.52 599.989 223.93 585.989 218.16C586.489 203.56 577.239 190.16 562.989 186.4C548.179 182.51 532.989 190.33 526.599 204.23C517.599 199.56 508.079 200.06 504.939 205.55C501.659 211.29 506.589 220.32 515.939 225.71C518.886 227.432 522.111 228.627 525.469 229.24C526.911 233.319 529.191 237.051 532.162 240.195C535.133 243.34 538.729 245.828 542.719 247.5C542.473 253.403 543.877 259.258 546.774 264.407C549.671 269.556 553.946 273.796 559.119 276.65C559.684 280.753 561.201 284.668 563.549 288.08C563.274 288.796 563.04 289.527 562.849 290.27C559.909 301.42 566.269 312.76 577.039 315.59C587.809 318.42 598.929 311.68 601.859 300.53C602.647 297.558 602.783 294.45 602.259 291.42C605.715 287.994 608.185 283.7 609.409 278.99Z" fill="#3F3D56"/>
<path opacity="0.1" d="M511.109 208.45C514.249 202.96 523.759 202.45 532.769 207.13C539.139 193.23 554.349 185.4 569.159 189.3C569.829 189.47 570.489 189.68 571.159 189.9C568.626 188.338 565.877 187.158 562.999 186.4C548.189 182.51 532.999 190.33 526.609 204.23C517.609 199.56 508.089 200.06 504.949 205.55C501.669 211.29 506.599 220.32 515.949 225.71C517.704 226.72 519.553 227.557 521.469 228.21C512.529 222.75 507.909 214.05 511.109 208.45Z" fill="black"/>
<path opacity="0.1" d="M569.029 293.17C569.22 292.427 569.454 291.696 569.729 290.98C567.381 287.564 565.864 283.646 565.299 279.54C560.126 276.688 555.851 272.451 552.954 267.303C550.057 262.155 548.653 256.302 548.899 250.4C544.909 248.728 541.313 246.24 538.342 243.095C535.371 239.951 533.091 236.219 531.649 232.14C529.691 231.791 527.777 231.231 525.939 230.47C527.466 234.275 529.736 237.737 532.615 240.656C535.494 243.575 538.926 245.891 542.709 247.47C542.463 253.373 543.867 259.228 546.764 264.377C549.661 269.526 553.936 273.766 559.109 276.62C559.674 280.723 561.192 284.638 563.539 288.05C563.264 288.766 563.03 289.497 562.839 290.24C559.909 301.35 566.219 312.65 576.929 315.53C573.496 313.048 570.9 309.578 569.489 305.583C568.077 301.588 567.917 297.258 569.029 293.17Z" fill="black"/>
<path d="M545.948 250.381C547.562 249.155 547.541 246.41 545.9 244.251C544.26 242.092 541.622 241.335 540.008 242.561C538.394 243.787 538.415 246.531 540.055 248.691C541.696 250.85 544.334 251.607 545.948 250.381Z" fill="#FBBEBE"/>
<path d="M252.789 39.34C261.786 39.34 269.079 32.0467 269.079 23.05C269.079 14.0533 261.786 6.76001 252.789 6.76001C243.793 6.76001 236.499 14.0533 236.499 23.05C236.499 32.0467 243.793 39.34 252.789 39.34Z" fill="#3F3D56"/>
<path d="M288.139 118.4C313.373 118.4 333.829 91.8953 333.829 59.2C333.829 26.5047 313.373 0 288.139 0C262.905 0 242.449 26.5047 242.449 59.2C242.449 91.8953 262.905 118.4 288.139 118.4Z" fill="#3F3D56"/>
<path opacity="0.1" d="M288.139 100.52C265.249 100.52 246.289 78.71 242.959 50.26C242.613 53.2274 242.439 56.2125 242.439 59.2C242.439 91.89 262.899 118.4 288.139 118.4C313.379 118.4 333.829 91.89 333.829 59.2C333.829 56.2125 333.656 53.2274 333.309 50.26C329.989 78.75 311.029 100.52 288.139 100.52Z" fill="black"/>
<path d="M385.499 232.58C384.499 236.58 380.289 239.84 375.609 242.09C365.749 246.84 353.609 248.25 341.819 248.73C338.819 248.912 335.81 248.855 332.819 248.56C326.649 247.83 320.929 245.2 317.359 241.45C316.85 241.041 316.497 240.469 316.359 239.83C316.384 239.447 316.485 239.072 316.657 238.729C316.829 238.386 317.068 238.08 317.359 237.83C323.649 230.97 334.129 226.75 344.649 223.75C352.649 221.44 366.589 215.46 375.319 216.27C383.799 217 386.739 227.48 385.499 232.58Z" fill="#3F3D56"/>
<path opacity="0.1" d="M385.499 232.58C384.499 236.58 380.289 239.84 375.609 242.09C365.749 246.84 353.609 248.25 341.819 248.73C338.819 248.912 335.81 248.855 332.819 248.56C326.649 247.83 320.929 245.2 317.359 241.45C316.85 241.041 316.497 240.469 316.359 239.83C316.384 239.447 316.485 239.072 316.657 238.729C316.829 238.386 317.068 238.08 317.359 237.83C323.649 230.97 334.129 226.75 344.649 223.75C352.649 221.44 366.589 215.46 375.319 216.27C383.799 217 386.739 227.48 385.499 232.58Z" fill="black"/>
<path d="M260.239 202.44C257.24 208.324 256.697 215.157 258.729 221.44C260.801 227.688 264.682 233.18 269.879 237.22C282.649 247.47 300.169 248.88 316.499 248.75C330.818 248.621 345.117 247.639 359.319 245.81C364.049 245.2 368.829 244.48 373.209 242.59C378.539 240.28 383.209 236.05 385.119 230.59C387.029 225.13 385.679 218.37 381.119 214.71C377.119 211.49 371.689 211.05 366.599 210.71L337.449 208.96C340.329 206.04 344.159 204.39 347.669 202.28C352.319 199.46 355.409 194.74 358.799 190.49C363.799 184.13 369.799 178.57 375.799 173.04C376.799 178.48 380.189 182.95 384.239 186.71C388.289 190.47 392.959 193.49 397.179 197.06C407.379 205.72 414.719 217.48 425.449 225.48C432.831 223.539 439.732 220.094 445.719 215.36L441.549 207.81C441.207 207.019 440.666 206.33 439.979 205.81C438.789 205.09 437.269 205.46 435.899 205.26C432.239 204.71 430.639 200.48 429.199 197.07C425.259 187.69 417.699 180.42 411.199 172.56C406.459 166.765 402.258 160.55 398.649 153.99C396.479 150.08 394.499 145.99 391.549 142.62C388.599 139.25 384.489 136.62 380.009 136.62C376.009 136.62 372.409 138.62 369.009 140.62C358.652 146.774 348.686 153.563 339.169 160.95C334.169 164.81 329.239 168.9 323.399 171.27C320.939 172.27 318.399 172.95 315.989 174.16C311.859 176.29 308.719 179.89 305.339 183.08C293.299 194.47 276.809 201.85 260.239 202.44Z" fill="#605D82"/>
<path d="M321.199 121.34C321.069 124.826 320.328 128.261 319.009 131.49C318.342 133.094 317.351 134.544 316.098 135.748C314.846 136.952 313.358 137.886 311.729 138.49C309.412 139.111 306.982 139.19 304.629 138.72C302.573 138.498 300.594 137.815 298.839 136.72C296.109 134.84 294.749 131.49 294.249 128.21C293.749 124.93 293.979 121.58 293.659 118.28C293.348 115.613 292.84 112.972 292.139 110.38C291.929 109.52 291.709 108.66 291.489 107.8C291.269 106.94 291.079 106.08 290.889 105.22C290.699 104.36 290.549 103.61 290.409 102.79C290.269 101.97 290.189 101.41 290.119 100.72C290.055 98.6581 289.719 96.6137 289.119 94.64C288.55 93.3623 287.835 92.1544 286.989 91.04C286.629 90.52 286.279 90.04 285.989 89.47C285.058 88.0768 284.625 86.4102 284.759 84.74C284.798 84.4811 284.861 84.2265 284.949 83.98C284.98 83.8844 285.017 83.7909 285.059 83.7C285.416 83.6021 285.743 83.419 286.013 83.1664C286.283 82.9138 286.488 82.5993 286.609 82.25C286.746 81.4964 286.68 80.72 286.419 80C286.125 78.9944 285.719 78.025 285.209 77.11C284.879 76.51 283.749 75.42 283.739 74.73C283.739 73.34 286.439 72.22 287.539 71.67C290.899 69.9846 294.648 69.2252 298.399 69.47C300.799 69.63 303.399 70.37 304.729 72.39C305.929 74.2 305.729 76.55 306.279 78.66C306.325 78.9681 306.453 79.2582 306.649 79.5C306.91 79.7374 307.239 79.8877 307.589 79.93C308.175 80.0482 308.776 80.0718 309.369 80C309.528 79.9914 309.685 79.968 309.839 79.93C310.764 79.759 311.639 79.3832 312.399 78.83C312.899 78.69 313.399 78.59 313.889 78.5H313.949C315.949 84.78 316.199 91.5 317.829 97.92C318.639 101.1 319.829 104.24 319.959 107.52C319.959 107.66 319.959 107.81 319.959 107.95C319.959 109.01 319.899 110.07 319.959 111.12C319.977 111.59 320.031 112.058 320.119 112.52C320.3 113.265 320.52 113.999 320.779 114.72C320.849 114.95 320.919 115.18 320.979 115.42C321.029 115.588 321.069 115.758 321.099 115.93C321.392 117.719 321.426 119.541 321.199 121.34Z" fill="#FBBEBE"/>
<path d="M293.319 80.26C306.265 80.26 316.759 69.7656 316.759 56.82C316.759 43.8744 306.265 33.38 293.319 33.38C280.374 33.38 269.879 43.8744 269.879 56.82C269.879 69.7656 280.374 80.26 293.319 80.26Z" fill="#FBBEBE"/>
<path d="M442.149 184.54C441.466 178.151 439.194 172.035 435.539 166.75L437.369 177.6C436.61 177.818 435.804 177.809 435.05 177.577C434.295 177.344 433.624 176.897 433.119 176.29C432.13 175.057 431.375 173.654 430.889 172.15C428.226 165.54 424.742 159.291 420.519 153.55C405.599 152.3 390.839 146.12 377.719 138.9C364.599 131.68 352.309 123.05 339.349 115.54C337.102 114.185 334.763 112.989 332.349 111.96C328.299 110.34 323.749 109.5 319.909 107.59L319.139 107.18C318.269 106.713 317.445 106.164 316.679 105.54C316.268 105.2 315.877 104.836 315.509 104.45C313.591 102.222 312.069 99.682 311.009 96.94C308.949 92.38 308.209 86.87 306.159 82.31C307.105 81.4296 308.165 80.6796 309.309 80.08L309.809 79.83C310.624 79.4497 311.471 79.1418 312.339 78.91C312.839 78.77 313.339 78.67 313.829 78.58H313.889C316.213 78.2054 318.593 78.394 320.829 79.13C324.089 80.24 326.829 82.44 329.589 84.53C333.939 87.82 338.459 90.92 342.409 94.69C344.669 96.86 346.739 99.24 349.169 101.21C351.195 102.774 353.331 104.191 355.559 105.45L395.099 129C399.559 131.65 404.029 134.31 408.389 137.13C415.019 141.4 421.389 146.03 427.789 150.66L439.079 158.84C440.316 159.642 441.4 160.658 442.279 161.84C443.053 163.166 443.534 164.643 443.689 166.17C444.627 172.329 444.1 178.623 442.149 184.54Z" fill="#FBBEBE"/>
<path d="M327.019 138.97C325.429 146.06 318.269 150.35 314.519 156.58C309.859 164.31 311.759 173.3 313.519 182.16L303.929 190.42C302.169 191.93 300.399 193.42 298.509 194.79C295.737 196.653 292.84 198.324 289.839 199.79L281.359 204.15C278.728 205.628 275.941 206.809 273.049 207.67C267.469 209.1 261.549 208.1 256.049 206.45C255.398 206.28 254.773 206.025 254.189 205.69C253.846 205.484 253.547 205.212 253.309 204.89C252.761 203.915 252.563 202.783 252.749 201.68C253.309 192.4 255.579 183.31 257.839 174.29C259.027 168.873 260.635 163.557 262.649 158.39C264.633 153.967 266.915 149.684 269.479 145.57C272.479 140.5 275.479 135.39 279.479 131.04C281.189 129.16 283.099 127.38 284.119 125.04C285.529 121.82 284.979 118.13 285.269 114.63C285.485 111.995 286.184 109.423 287.329 107.04C287.942 105.758 288.679 104.539 289.529 103.4C289.919 104.3 290.299 105.2 290.689 106.09L291.439 107.85C291.769 108.6 292.089 109.36 292.439 110.11C293.373 112.257 294.299 114.407 295.219 116.56C296.212 119.272 297.633 121.808 299.429 124.07C301.339 126.23 304.149 127.8 307.009 127.49C308.352 127.266 309.629 126.746 310.746 125.968C311.863 125.189 312.794 124.172 313.469 122.99C314.809 120.622 315.777 118.062 316.339 115.4C317.127 112.161 317.236 108.793 316.659 105.51C315.659 99.18 313.009 92.72 311.059 86.84C310.264 84.8809 309.804 82.8018 309.699 80.69C309.698 80.4515 309.721 80.2136 309.769 79.98V79.8C310.584 79.4196 311.431 79.1118 312.299 78.88C312.799 78.74 313.299 78.64 313.789 78.55C315.509 87.8833 317.233 97.1966 318.959 106.49C318.959 106.71 319.049 106.93 319.089 107.15C319.329 108.49 319.579 109.82 319.859 111.15C320.139 112.48 320.379 113.56 320.679 114.75C320.779 115.15 320.889 115.56 320.999 115.96C321.309 117.06 321.649 118.14 321.999 119.22C324.439 125.75 328.509 132.26 327.019 138.97Z" fill="#6C63FF"/>
<path d="M422.159 238.64C422.073 240.017 422.338 241.394 422.929 242.64C424.389 245.32 427.929 245.93 430.929 246.18C448.724 247.647 466.627 247.103 484.299 244.56C485.259 244.49 486.19 244.199 487.019 243.71C489.529 241.95 488.019 237.66 485.239 236.28C482.459 234.9 479.239 235.28 476.239 234.65C473.247 233.893 470.397 232.657 467.799 230.99C461.699 227.483 455.699 223.817 449.799 219.99C446.269 217.72 442.099 215.3 438.129 216.65C427.339 220.29 422.079 227.03 422.159 238.64Z" fill="#2F2E41"/>
<path d="M290.979 104.75L290.889 105.24L290.739 106.06C290.249 108.58 289.639 111.06 288.949 113.59C287.039 120.48 284.489 127.27 281.949 133.95L261.539 187.75C259.819 192.27 258.109 196.75 256.159 201.21C255.509 202.68 254.839 204.21 254.159 205.67C251.769 211.04 249.469 216.59 248.709 222.32C248.209 226.11 247.709 229.98 248.459 233.73C249.209 237.48 251.459 241.15 255.069 242.53C256.809 243.21 259.299 244.12 258.819 245.93C258.569 246.93 257.439 247.41 256.419 247.57C255.082 247.786 253.713 247.703 252.411 247.328C251.11 246.953 249.907 246.294 248.889 245.4C246.989 243.72 245.519 241.09 242.989 240.81C241.239 240.62 239.629 241.67 237.989 242.4C231.439 245.4 223.819 243.3 216.939 241.17C217.479 238.39 220.279 236.55 223.049 236C225.819 235.45 228.699 235.83 231.539 235.76C232.448 235.807 233.349 235.573 234.119 235.09C234.816 234.468 235.313 233.654 235.549 232.75C237.372 227.343 238.726 221.789 239.599 216.15C240.519 210.25 240.899 204.27 242.199 198.45C243.199 193.91 244.779 189.51 246.119 185.05C248.72 175.871 250.853 166.566 252.509 157.17C253.348 153.27 253.949 149.323 254.309 145.35C254.539 142.05 254.429 138.73 254.749 135.45C255.28 131.176 256.17 126.955 257.409 122.83C258.629 118.32 259.839 113.83 261.059 109.33C262.859 102.67 264.789 95.76 269.349 90.59C270.932 88.7678 272.873 87.2904 275.051 86.2496C277.228 85.2089 279.597 84.6269 282.009 84.54C282.914 84.5359 283.816 84.6331 284.699 84.83L285.139 84.94C286.105 85.1887 287.031 85.5725 287.889 86.08C289.299 85.18 290.009 85.5 290.949 86.87C291.765 88.3331 292.15 89.9973 292.059 91.67C292.131 96.0549 291.769 100.436 290.979 104.75Z" fill="#FBBEBE"/>
<path d="M292.519 110.06L292.459 110.12L292.139 110.44L288.949 113.63L287.379 107.05L282.009 84.51C282.914 84.5059 283.816 84.6031 284.699 84.8C284.738 84.541 284.801 84.2865 284.889 84.04L285.139 84.91L286.959 91.1L290.409 102.85L290.979 104.79L292.519 110.06Z" fill="#6C63FF"/>
<path d="M310.429 22.25H283.569C276.942 22.25 271.569 27.6226 271.569 34.25V42.04C271.569 48.6674 276.942 54.04 283.569 54.04H310.429C317.057 54.04 322.429 48.6674 322.429 42.04V34.25C322.429 27.6226 317.057 22.25 310.429 22.25Z" fill="#3F3D56"/>
<path d="M325.399 39.34C334.396 39.34 341.689 32.0467 341.689 23.05C341.689 14.0533 334.396 6.76001 325.399 6.76001C316.403 6.76001 309.109 14.0533 309.109 23.05C309.109 32.0467 316.403 39.34 325.399 39.34Z" fill="#3F3D56"/>
<path opacity="0.1" d="M325.009 6.74997H324.409C328.605 6.93014 332.569 8.72358 335.474 11.756C338.379 14.7884 340 18.8256 340 23.025C340 27.2243 338.379 31.2615 335.474 34.2939C332.569 37.3264 328.605 39.1198 324.409 39.3H325.009C329.33 39.3 333.473 37.5837 336.528 34.5287C339.583 31.4738 341.299 27.3303 341.299 23.01C341.299 18.6896 339.583 14.5462 336.528 11.4912C333.473 8.43623 329.33 6.71997 325.009 6.71997V6.74997Z" fill="black"/>
<path opacity="0.1" d="M252.789 6.74997H253.389C249.194 6.93014 245.23 8.72358 242.325 11.756C239.42 14.7884 237.798 18.8256 237.798 23.025C237.798 27.2243 239.42 31.2615 242.325 34.2939C245.23 37.3264 249.194 39.1198 253.389 39.3H252.789C250.65 39.3 248.532 38.8786 246.555 38.06C244.579 37.2413 242.783 36.0414 241.27 34.5287C239.758 33.0161 238.558 31.2203 237.739 29.2439C236.921 27.2675 236.499 25.1492 236.499 23.01C236.499 20.8707 236.921 18.7525 237.739 16.7761C238.558 14.7997 239.758 13.0039 241.27 11.4912C242.783 9.97853 244.579 8.77863 246.555 7.95998C248.532 7.14133 250.65 6.71997 252.789 6.71997V6.74997Z" fill="black"/>
<path opacity="0.1" d="M322.929 50.85H281.649C280.386 50.85 279.174 50.3488 278.28 49.4564C277.386 48.564 276.882 47.3533 276.879 46.09V49.26C276.882 50.5242 277.385 51.736 278.279 52.6299C279.173 53.5239 280.385 54.0273 281.649 54.03H322.969C324.234 54.0273 325.445 53.5239 326.339 52.6299C327.233 51.736 327.737 50.5242 327.739 49.26V46.09C327.737 46.7185 327.61 47.3404 327.367 47.92C327.124 48.4996 326.768 49.0255 326.322 49.4677C325.875 49.9098 325.345 50.2595 324.763 50.4967C324.181 50.7339 323.558 50.8539 322.929 50.85Z" fill="black"/>
<path d="M462.969 217.6C462.969 217.6 465.549 218.05 465.969 215.96C466.179 214.96 465.469 208.54 464.659 202.12C464.269 198.96 463.849 195.81 463.509 193.29C463.099 190.2 462.799 188.07 462.799 188.07L462.329 186.51L459.549 177.17L456.929 168.37L454.999 164.91L441.109 171.67L432.469 186.6L435.149 188.29L435.619 188.59L440.549 193.75L454.369 208.25L460.589 214.78L461.319 215.54L462.969 217.6Z" fill="#FFE09C"/>
<path d="M452.049 158.97C452.049 158.97 436.829 166.11 433.169 173.87C433.169 173.87 429.749 180.4 429.319 183.87C429.319 183.87 428.319 187.04 434.629 187.82C434.629 187.82 437.499 176.17 446.109 171.11L454.729 166.06L452.049 158.97Z" fill="#E7C4C3"/>
<path d="M456.015 176.894C456.758 174.124 455.457 171.369 453.111 170.74C450.764 170.111 448.26 171.847 447.518 174.616C446.776 177.386 448.076 180.141 450.422 180.77C452.769 181.399 455.273 179.664 456.015 176.894Z" fill="#FF7F8E"/>
<path d="M454.364 194.999C455.099 192.24 453.8 189.498 451.463 188.876C449.125 188.253 446.634 189.984 445.899 192.744C445.164 195.503 446.463 198.244 448.8 198.867C451.138 199.49 453.629 197.758 454.364 194.999Z" fill="#FF7F8E"/>
<path d="M440.549 193.75C441.347 193.426 442.056 192.917 442.617 192.265C443.179 191.613 443.577 190.837 443.779 190C444.519 187.24 443.219 184.49 440.879 183.87C438.539 183.25 436.049 184.98 435.319 187.74C435.262 187.927 435.218 188.117 435.189 188.31L435.659 188.61L440.549 193.75Z" fill="#FF7F8E"/>
<path d="M459.139 187.08C459.687 187.219 460.259 187.24 460.815 187.141C461.372 187.043 461.902 186.828 462.369 186.51L459.589 177.17C458.761 177.477 458.021 177.984 457.435 178.645C456.849 179.306 456.435 180.101 456.229 180.96C455.499 183.75 456.799 186.46 459.139 187.08Z" fill="#FF7F8E"/>
<path d="M460.749 203.24C461.448 203.405 462.178 203.389 462.87 203.193C463.561 202.997 464.191 202.627 464.699 202.12C464.309 198.96 463.889 195.81 463.549 193.29H463.419C461.079 192.66 458.589 194.4 457.849 197.16C457.109 199.92 458.419 202.62 460.749 203.24Z" fill="#FF7F8E"/>
<path d="M460.589 214.75C460.876 214.266 461.095 213.744 461.239 213.2C461.979 210.44 460.679 207.7 458.339 207.08C457.631 206.908 456.89 206.923 456.189 207.123C455.488 207.323 454.851 207.701 454.339 208.22L460.589 214.75Z" fill="#FF7F8E"/>
<path d="M453.719 172.93L455.319 173.36C454.69 174.517 454.319 175.796 454.229 177.11C454.225 177.197 454.225 177.283 454.229 177.37C454.439 179.02 452.629 176.94 452.629 176.94C452.629 176.94 452.939 173.55 453.719 172.93Z" fill="#94CC79"/>
<path d="M446.429 183.25L448.039 183.68C447.405 184.831 447.033 186.108 446.949 187.42C446.944 187.507 446.944 187.593 446.949 187.68C447.159 189.33 445.349 187.25 445.349 187.25C445.349 187.25 445.649 183.86 446.429 183.25Z" fill="#94CC79"/>
<path d="M451.409 186.66L453.009 187.08C452.381 188.237 452.009 189.516 451.919 190.83C451.914 190.917 451.914 191.003 451.919 191.09C452.139 192.74 450.319 190.66 450.319 190.66C450.319 190.66 450.649 187.27 451.409 186.66Z" fill="#94CC79"/>
<path d="M457.809 195.27L459.419 195.69C458.786 196.845 458.414 198.125 458.329 199.44C458.324 199.527 458.324 199.613 458.329 199.7C458.539 201.35 456.729 199.27 456.729 199.27C456.729 199.27 457.039 195.88 457.809 195.27Z" fill="#94CC79"/>
<path d="M461.799 209.44L463.399 209.87C462.772 211.024 462.4 212.3 462.309 213.61C462.304 213.697 462.304 213.783 462.309 213.87C462.529 215.52 460.709 213.45 460.709 213.45C460.709 213.45 461.019 210.05 461.799 209.44Z" fill="#94CC79"/>
<path d="M453.119 199.53L454.719 199.96C454.087 201.129 453.722 202.423 453.649 203.75C453.644 203.837 453.644 203.923 453.649 204.01C453.859 205.66 452.049 203.59 452.049 203.59C452.049 203.59 452.349 200.14 453.119 199.53Z" fill="#94CC79"/>
<path d="M456.999 160.29C456.999 160.29 454.709 155.1 451.999 158.97C452.228 162.112 453.261 165.143 454.999 167.77C454.999 167.77 463.289 190.32 462.599 193.77C462.599 193.77 465.869 215.55 465.059 216.77C465.059 216.77 465.959 218.31 466.599 212.52C467.239 206.73 464.429 189.72 464.429 189.72L460.319 172.04L457.569 166.04L456.999 160.29Z" fill="#E7C4C3"/>
<path opacity="0.2" d="M456.999 160.29C456.999 160.29 454.709 155.1 451.999 158.97C452.228 162.112 453.261 165.143 454.999 167.77C454.999 167.77 463.289 190.32 462.599 193.77C462.599 193.77 465.869 215.55 465.059 216.77C465.059 216.77 465.959 218.31 466.599 212.52C467.239 206.73 464.429 189.72 464.429 189.72L460.319 172.04L457.569 166.04L456.999 160.29Z" fill="white"/>
<path d="M429.499 168.89C429.499 168.89 433.609 180.73 437.369 177.58L434.369 162.11L429.499 168.89Z" fill="#FBBEBE"/>
<path d="M148.399 217.52C148.399 217.52 184.649 278.59 193.119 286.75C193.119 286.75 229.339 324.35 210.929 321.75C209.579 321.56 183.069 299.15 181.519 295.47C179.969 291.79 129.849 226.68 129.849 226.68L136.999 220.1L148.399 217.52Z" fill="#A0616A"/>
<path opacity="0.1" d="M148.399 217.52C148.399 217.52 184.649 278.59 193.119 286.75C193.119 286.75 229.339 324.35 210.929 321.75C209.579 321.56 183.069 299.15 181.519 295.47C179.969 291.79 129.849 226.68 129.849 226.68L136.999 220.1L148.399 217.52Z" fill="black"/>
<path d="M181.549 416.97C181.549 416.97 169.949 431.47 174.789 437.27C179.629 443.07 203.739 454.16 211.519 453.7C219.739 453.22 247.289 454.7 248.259 442.1C248.259 442.1 250.189 436.3 225.059 435.33C199.929 434.36 207.649 408.26 207.649 408.26L181.549 416.97Z" fill="#2F2E41"/>
<path d="M43.3093 294.19C43.3093 294.19 31.7092 333.82 66.5092 340.59L104.209 338.66C104.209 338.66 157.379 328.02 171.889 335.76C171.889 335.76 177.689 336.76 175.749 344.46C173.809 352.16 178.649 404.4 178.649 404.4V421.8C178.649 421.8 211.519 421.8 215.389 417.93C215.389 417.93 212.489 402.46 215.389 389.93C218.289 377.4 210.559 337.72 210.559 337.72L209.789 313.91C209.73 310.959 208.887 308.078 207.346 305.561C205.804 303.044 203.621 300.983 201.019 299.59C199.191 298.622 197.158 298.104 195.089 298.08C195.089 298.08 129.349 287.45 106.149 289.38C82.9492 291.31 43.3093 294.19 43.3093 294.19Z" fill="#605D82"/>
<path d="M108.079 167.54C108.079 167.54 125.479 187.84 127.409 194.61C129.339 201.38 150.649 218.75 150.649 218.75C150.649 218.75 135.179 230.35 138.079 236.15C140.979 241.95 117.779 216.82 117.779 216.82L90.6493 177.21L108.079 167.54Z" fill="#6C63FF"/>
<path opacity="0.1" d="M108.079 167.54C108.079 167.54 125.479 187.84 127.409 194.61C129.339 201.38 150.649 218.75 150.649 218.75C150.649 218.75 135.179 230.35 138.079 236.15C140.979 241.95 117.779 216.82 117.779 216.82L90.6493 177.21L108.079 167.54Z" fill="black"/>
<path d="M119.649 144.34C119.649 144.34 110.949 172.34 110.949 183.01C110.949 193.68 74.2093 180.11 75.1793 174.31C76.1493 168.51 96.4493 147.24 97.4193 138.54C98.3893 129.84 119.649 144.34 119.649 144.34Z" fill="#A0616A"/>
<path opacity="0.1" d="M90.6492 163.67C90.6492 163.67 56.8092 154.97 51.9792 204.28C47.1492 253.59 55.8392 259.38 41.3392 289.35C26.8392 319.32 139.949 293.22 139.949 293.22C139.949 293.22 134.149 286.45 115.779 289.35L107.079 263.25C107.079 263.25 104.179 251.65 120.619 251.65C137.059 251.65 129.319 217.81 129.319 217.81C129.319 217.81 120.619 188.81 115.779 185.91C110.939 183.01 102.279 165.61 90.6492 163.67Z" fill="black"/>
<path d="M90.6492 161.75C90.6492 161.75 56.8092 153.05 51.9792 202.35C47.1492 251.65 55.8392 257.46 41.3392 287.43C26.8392 317.4 139.949 291.3 139.949 291.3C139.949 291.3 134.149 284.53 115.779 287.43L107.079 261.33C107.079 261.33 104.209 249.75 120.649 249.75C137.089 249.75 129.349 215.91 129.349 215.91C129.349 215.91 120.649 186.91 115.809 184.01C110.969 181.11 102.279 163.67 90.6492 161.75Z" fill="#6C63FF"/>
<path d="M110.979 161.74C128.597 161.74 142.879 147.458 142.879 129.84C142.879 112.222 128.597 97.94 110.979 97.94C93.3613 97.94 79.0792 112.222 79.0792 129.84C79.0792 147.458 93.3613 161.74 110.979 161.74Z" fill="#A0616A"/>
<path d="M104.819 293.18L184.989 341.1L259.579 271.6L170.659 240.63L106.669 284.19L104.819 293.18Z" fill="#DADAE5"/>
<path d="M199.429 159.04L174.479 233.24L257.199 257.03L292.509 156.69L199.429 159.04Z" fill="#DADAE5"/>
<path opacity="0.03" d="M192.769 153.56L199.539 159.75L292.619 157.4L294.759 151.32L192.769 153.56Z" fill="black"/>
<path opacity="0.03" d="M168.199 228.97L192.769 153.56L199.539 159.75L175.219 232.09L168.199 228.97Z" fill="black"/>
<path d="M192.659 152.85L199.429 159.04L292.509 156.69L294.649 150.61L192.659 152.85Z" fill="#EFF0F4"/>
<path d="M168.089 228.27L192.659 152.85L199.429 159.04L175.109 231.38L168.089 228.27Z" fill="#EFF0F4"/>
<path opacity="0.03" d="M192.659 152.85L203.009 162.53L296.099 160.18L294.649 150.61L192.659 152.85Z" fill="black"/>
<path opacity="0.03" d="M168.089 228.27L192.659 152.85L203.009 162.53L178.689 234.87L168.089 228.27Z" fill="black"/>
<path opacity="0.03" d="M168.249 229.33L170.509 243.68L259.979 274.74L257.369 258.09L168.249 229.33Z" fill="black"/>
<path opacity="0.03" d="M102.109 276.49L168.249 229.33L171.139 243.67L106.169 291.99L102.109 276.49Z" fill="black"/>
<path d="M168.089 228.27L170.029 240.64L259.499 271.7L257.199 257.03L168.089 228.27Z" fill="#EFF0F4"/>
<path d="M101.939 275.42L168.089 228.27L170.659 240.63L105.689 288.95L101.939 275.42Z" fill="#EFF0F4"/>
<path opacity="0.03" d="M168.089 228.27L170.029 240.64L259.499 271.7L257.199 257.03L168.089 228.27Z" fill="black"/>
<path opacity="0.03" d="M101.939 275.42L168.089 228.27L170.659 240.63L105.689 288.95L101.939 275.42Z" fill="black"/>
<path d="M101.939 275.42L104.929 293.25L184.879 341.02L182.909 322.67L101.939 275.42Z" fill="#CCCAD6"/>
<path d="M138.369 272.6C138.369 272.6 136.979 275.25 139.099 276.47C140.099 277.05 147.329 278.47 154.589 279.83C158.149 280.49 161.719 281.13 164.589 281.63C168.089 282.25 170.509 282.63 170.509 282.63H172.349L183.469 282.84L193.929 283.04L198.359 282.13L195.809 264.75L182.569 250.2L179.799 252.54L179.329 252.94L172.049 256.48L151.509 266.48L142.269 270.98L141.189 271.51L138.369 272.6Z" fill="#FFE09C"/>
<path d="M205.839 280.99C205.839 280.99 203.349 261.99 196.169 255.33C196.169 255.33 190.269 249.33 186.639 247.69C186.639 247.69 183.549 245.5 180.509 252.1C180.509 252.1 192.179 259.24 194.699 270.35L197.209 281.46L205.839 280.99Z" fill="#E7C4C3"/>
<path d="M191.805 274.208C193.291 271.881 192.27 268.573 189.524 266.818C186.778 265.064 183.347 265.529 181.86 267.856C180.374 270.183 181.395 273.492 184.141 275.246C186.887 277 190.318 276.535 191.805 274.208Z" fill="#FF7F8E"/>
<path d="M173.563 270.082C175.05 267.755 174.029 264.446 171.283 262.692C168.537 260.938 165.106 261.402 163.619 263.73C162.133 266.057 163.154 269.365 165.9 271.119C168.646 272.874 172.077 272.409 173.563 270.082Z" fill="#FF7F8E"/>
<path d="M172.049 256.49C172.127 257.474 172.44 258.424 172.962 259.261C173.484 260.098 174.2 260.798 175.049 261.3C177.789 263.05 181.219 262.59 182.699 260.3C184.179 258.01 183.169 254.67 180.419 252.92C180.232 252.8 180.038 252.69 179.839 252.59L179.369 252.99L172.049 256.49Z" fill="#FF7F8E"/>
<path d="M172.849 278.98C172.509 279.528 172.287 280.142 172.2 280.781C172.112 281.42 172.159 282.07 172.339 282.69L183.459 282.9C183.416 281.882 183.119 280.892 182.595 280.018C182.071 279.145 181.337 278.417 180.459 277.9C177.759 276.19 174.329 276.66 172.849 278.98Z" fill="#FF7F8E"/>
<path d="M154.729 275.15C154.306 275.853 154.072 276.652 154.047 277.472C154.023 278.291 154.209 279.103 154.589 279.83C158.149 280.49 161.719 281.13 164.589 281.63L164.679 281.5C166.159 279.18 165.139 275.87 162.399 274.12C159.659 272.37 156.219 272.83 154.729 275.15Z" fill="#FF7F8E"/>
<path d="M142.269 271C142.698 271.478 143.189 271.895 143.729 272.24C146.469 273.99 149.899 273.53 151.379 271.24C151.805 270.535 152.041 269.731 152.064 268.907C152.086 268.083 151.895 267.268 151.509 266.54L142.269 271Z" fill="#FF7F8E"/>
<path d="M190.089 277.98L189.089 279.57C188.053 278.488 186.794 277.646 185.399 277.1L185.109 277.03C183.239 276.69 186.109 275.44 186.109 275.44C186.109 275.44 189.699 276.93 190.089 277.98Z" fill="#94CC79"/>
<path d="M181.399 266.5L180.399 268.1C179.365 267.014 178.105 266.168 176.709 265.62L176.419 265.55C174.559 265.22 177.419 263.96 177.419 263.96C177.419 263.96 181.009 265.45 181.399 266.5Z" fill="#94CC79"/>
<path d="M175.979 270.75L174.979 272.34C173.943 271.258 172.684 270.416 171.289 269.87L170.999 269.8C169.129 269.46 171.999 268.21 171.999 268.21C171.999 268.21 175.579 269.68 175.979 270.75Z" fill="#94CC79"/>
<path d="M164.409 274.75L163.409 276.35C162.375 275.264 161.115 274.418 159.719 273.87L159.429 273.8C157.559 273.47 160.429 272.21 160.429 272.21C160.429 272.21 164.009 273.66 164.409 274.75Z" fill="#94CC79"/>
<path d="M147.649 274.15L146.649 275.75C145.61 274.665 144.348 273.819 142.949 273.27L142.659 273.2C140.799 272.87 143.659 271.61 143.659 271.61C143.659 271.61 147.239 273.09 147.649 274.15Z" fill="#94CC79"/>
<path d="M161.399 268.15L160.399 269.74C159.365 268.654 158.105 267.808 156.709 267.26L156.419 267.19C154.549 266.86 157.419 265.6 157.419 265.6C157.419 265.6 160.999 267.09 161.399 268.15Z" fill="#94CC79"/>
<path d="M202.649 285.92C202.649 285.92 209.079 285.22 205.799 280.99C202.316 280.14 198.672 280.202 195.219 281.17C195.219 281.17 167.849 282.39 164.299 280.43C164.299 280.43 139.499 276.43 138.499 275.17C138.499 275.17 136.499 275.61 142.579 278.31C148.659 281.01 168.109 283.83 168.109 283.83L188.739 285.47L196.159 284.55L202.649 285.92Z" fill="#E7C4C3"/>
<path opacity="0.2" d="M202.649 285.92C202.649 285.92 209.079 285.22 205.799 280.99C202.316 280.14 198.672 280.202 195.219 281.17C195.219 281.17 167.849 282.39 164.299 280.43C164.299 280.43 139.499 276.43 138.499 275.17C138.499 275.17 136.499 275.61 142.579 278.31C148.659 281.01 168.109 283.83 168.109 283.83L188.739 285.47L196.159 284.55L202.649 285.92Z" fill="white"/>
<path d="M183.149 276.11C182.849 277.045 182.777 278.039 182.938 279.008C183.1 279.977 183.491 280.893 184.079 281.68C185.959 284.33 189.309 285.19 191.569 283.6C193.829 282.01 194.119 278.6 192.229 275.9C192.099 275.72 191.959 275.54 191.819 275.37L191.219 275.57L183.149 276.11Z" fill="#FF7F8E"/>
<path d="M182.909 322.67L257.199 257.03L259.479 271.52L184.879 341.02L182.909 322.67Z" fill="#CCCAD6"/>
<path d="M266.839 260.77L257.199 257.03L294.649 150.61L301.789 155.65L266.839 260.77Z" fill="#CCCAD6"/>
<g opacity="0.1">
<path d="M206.549 415.88C206.624 413.306 206.997 410.749 207.659 408.26L207.169 408.43C206.689 410.883 206.481 413.381 206.549 415.88Z" fill="white"/>
<path d="M211.519 451.75C203.739 452.21 179.619 441.11 174.789 435.31C174.152 434.528 173.762 433.574 173.669 432.57C173.526 433.385 173.552 434.221 173.745 435.026C173.937 435.831 174.293 436.588 174.789 437.25C179.619 443.05 203.739 454.14 211.519 453.68C219.739 453.2 247.289 454.68 248.259 442.08C248.326 441.741 248.281 441.39 248.129 441.08C245.909 452.66 219.529 451.3 211.519 451.75Z" fill="white"/>
</g>
<path d="M239.769 217.13C239.769 217.13 241.489 215.13 239.929 213.69C239.179 212.99 233.299 210.31 227.379 207.69C224.469 206.41 221.539 205.15 219.209 204.15L214.359 202.08L212.789 201.68L203.339 199.27L194.449 197L190.449 196.89L189.109 212.28L197.499 227.36L200.319 225.92L200.809 225.67L207.739 224.11L227.319 219.75L236.109 217.75L237.109 217.52L239.769 217.13Z" fill="#FFE09C"/>
<path d="M183.849 196.42C183.849 196.42 182.159 213.14 186.949 220.27C186.949 220.27 190.789 226.55 193.549 228.71C193.549 228.71 195.749 231.19 199.679 226.17C199.679 226.17 191.139 217.73 191.229 207.74L191.309 197.74L183.849 196.42Z" fill="#E7C4C3"/>
<path d="M201.681 212.528C203.415 210.842 203.208 207.815 201.218 205.768C199.227 203.72 196.208 203.427 194.473 205.114C192.739 206.8 192.946 209.826 194.936 211.874C196.927 213.921 199.946 214.214 201.681 212.528Z" fill="#FF7F8E"/>
<path d="M216.432 219.705C218.166 218.019 217.959 214.992 215.969 212.945C213.978 210.897 210.959 210.604 209.224 212.291C207.49 213.977 207.697 217.003 209.687 219.051C211.678 221.098 214.697 221.391 216.432 219.705Z" fill="#FF7F8E"/>
<path d="M207.779 224.12C207.912 223.269 207.84 222.399 207.569 221.581C207.297 220.764 206.835 220.023 206.219 219.42C204.219 217.42 201.219 217.08 199.469 218.77C197.719 220.46 197.949 223.48 199.939 225.53C200.072 225.671 200.212 225.805 200.359 225.93L200.849 225.68L207.779 224.12Z" fill="#FF7F8E"/>
<path d="M211.649 204.75C212.051 204.35 212.362 203.87 212.564 203.341C212.766 202.811 212.853 202.245 212.819 201.68L203.369 199.27C203.206 200.139 203.261 201.035 203.528 201.877C203.795 202.72 204.266 203.484 204.899 204.1C206.859 206.16 209.879 206.45 211.649 204.75Z" fill="#FF7F8E"/>
<path d="M226.309 211.67C226.815 211.151 227.18 210.51 227.367 209.81C227.555 209.109 227.559 208.373 227.379 207.67C224.469 206.39 221.539 205.13 219.209 204.13L219.099 204.22C217.369 205.91 217.579 208.94 219.569 210.99C221.559 213.04 224.579 213.36 226.309 211.67Z" fill="#FF7F8E"/>
<path d="M236.109 217.75C235.844 217.253 235.507 216.798 235.109 216.4C233.109 214.35 230.109 214.06 228.369 215.75C227.861 216.267 227.495 216.908 227.31 217.61C227.124 218.311 227.124 219.049 227.309 219.75L236.109 217.75Z" fill="#FF7F8E"/>
<path d="M196.649 202.15L197.839 201C198.51 202.131 199.417 203.103 200.499 203.85L200.729 203.97C202.259 204.63 199.539 205.12 199.539 205.12C199.539 205.12 196.819 203.13 196.649 202.15Z" fill="#94CC79"/>
<path d="M201.809 213.75L202.989 212.59C203.659 213.725 204.566 214.7 205.649 215.45L205.879 215.56C207.409 216.23 204.689 216.72 204.689 216.72C204.689 216.72 201.929 214.67 201.809 213.75Z" fill="#94CC79"/>
<path d="M207.279 211.18L208.469 210.02C209.139 211.155 210.046 212.13 211.129 212.88L211.359 212.99C212.889 213.66 210.169 214.15 210.169 214.15C210.169 214.15 207.409 212.16 207.279 211.18Z" fill="#94CC79"/>
<path d="M217.959 210.1L219.149 208.94C219.817 210.072 220.721 211.048 221.799 211.8L222.039 211.92C223.559 212.58 220.849 213.07 220.849 213.07C220.849 213.07 218.089 211.08 217.959 210.1Z" fill="#94CC79"/>
<path d="M232.169 213.96L233.359 212.8C234.023 213.936 234.927 214.912 236.009 215.66L236.249 215.77C237.769 216.44 235.059 216.93 235.059 216.93C235.059 216.93 232.299 214.93 232.169 213.96Z" fill="#94CC79"/>
<path d="M219.209 216.31L220.399 215.16C221.07 216.291 221.977 217.263 223.059 218.01C223.13 218.06 223.208 218.1 223.289 218.13C224.819 218.79 222.099 219.29 222.099 219.29C222.099 219.29 219.339 217.29 219.209 216.31Z" fill="#94CC79"/>
<path d="M187.529 192.84C187.529 192.84 181.899 192.15 183.849 196.42C186.652 197.851 189.775 198.54 192.919 198.42C192.919 198.42 216.529 202.88 219.169 205.26C219.169 205.26 239.539 213.64 240.169 214.94C240.169 214.94 241.959 214.94 237.319 211.43C232.679 207.92 216.649 201.57 216.649 201.57L199.369 196.02L192.849 195.31L187.529 192.84Z" fill="#E7C4C3"/>
<path opacity="0.2" d="M187.529 192.84C187.529 192.84 181.899 192.15 183.849 196.42C186.652 197.851 189.775 198.54 192.919 198.42C192.919 198.42 216.529 202.88 219.169 205.26C219.169 205.26 239.539 213.64 240.169 214.94C240.169 214.94 241.959 214.94 237.319 211.43C232.679 207.92 216.649 201.57 216.649 201.57L199.369 196.02L192.849 195.31L187.529 192.84Z" fill="white"/>
<path d="M158.739 216.13C161.611 214.623 164.21 212.645 166.429 210.28C167.429 209.1 168.269 207.77 169.299 206.61C171.896 203.836 175.27 201.912 178.979 201.09C182.659 200.282 186.423 199.916 190.189 200C192.71 199.839 195.239 200.144 197.649 200.9C198.855 201.294 199.941 201.988 200.805 202.917C201.669 203.846 202.283 204.979 202.589 206.21C203.139 209.21 201.179 212.12 198.829 214.05C196.641 215.835 194.066 217.085 191.309 217.7C189.062 218.089 186.795 218.352 184.519 218.49C171.139 219.89 159.199 227.17 147.519 233.8C137.219 239.63 131.379 239.36 120.689 244.42C120.269 241.22 115.429 243.7 115.499 240.47C115.559 238.06 115.679 234.38 117.959 232.96C120.609 231.31 124.959 230.96 127.959 229.96C134.852 227.7 141.584 224.977 148.109 221.81C151.716 220.043 155.259 218.15 158.739 216.13Z" fill="#A0616A"/>
<path opacity="0.1" d="M70.3792 207.18L121.649 253.58C121.649 253.58 131.319 234.25 134.219 234.25C137.119 234.25 99.4192 177.25 99.4192 177.25C99.4192 177.25 89.7492 165.65 83.9492 171.45C78.1492 177.25 60.7092 173.34 70.3792 207.18Z" fill="black"/>
<path d="M69.4093 205.25L120.649 251.65C120.649 251.65 130.319 232.31 133.219 232.31C136.119 232.31 98.4093 175.31 98.4093 175.31C98.4093 175.31 88.7393 163.7 82.9393 169.5C77.1393 175.3 59.7393 171.41 69.4093 205.25Z" fill="#6C63FF"/>
<path d="M153.769 123.46C154.888 122.215 155.797 120.797 156.459 119.26C160.879 109.26 153.869 96.7 141.899 93.26C135.899 91.51 129.179 91.86 123.189 90C118.369 88.51 114.309 85.69 109.889 83.49C101.583 79.3976 92.3932 77.4256 83.1394 77.75C74.0894 78.07 64.2494 81.25 60.5394 88.24C55.1194 98.42 65.0894 111.24 59.0494 121.15C54.6094 128.43 43.8394 130.58 34.9094 133.74C25.6642 136.937 17.2471 142.154 10.2694 149.01C3.26936 156.01 -1.73062 165.61 1.78938 174.29C3.83938 179.38 8.46936 183.36 12.1494 187.75C18.289 194.953 21.8804 203.981 22.3668 213.433C22.8531 222.886 20.2072 232.235 14.8394 240.03C13.1194 242.5 11.1094 244.91 10.3994 247.71C8.69936 254.39 15.5594 261.11 23.4894 262.41C31.4194 263.71 39.6494 260.75 45.8194 256.38C51.5157 252.453 56.1006 247.121 59.1294 240.9C66.4594 225.36 61.3094 207.9 60.5794 191.17C60.4894 189.22 60.5794 187.1 61.9494 185.57C64.0694 183.28 68.0694 183.34 71.4894 183.04C80.3394 182.26 88.4894 177.3 92.2394 170.46C99.4094 157.3 91.0594 138.91 103.589 129.01C119.359 116.55 142.059 136.25 153.769 123.46Z" fill="#3F3D56"/>
<path opacity="0.1" d="M141.899 93.22H141.799C146.479 98.64 148.239 105.96 145.459 112.28C144.797 113.817 143.888 115.235 142.769 116.48C131.059 129.27 108.359 109.57 92.5892 122.03C80.0592 131.93 88.4092 150.32 81.2392 163.48C77.5192 170.32 69.3392 175.28 60.4892 176.06C57.0692 176.36 53.0692 176.3 50.9492 178.59C49.5392 180.12 49.4892 182.24 49.5792 184.19C50.3092 200.92 55.4592 218.38 48.1292 233.92C45.1004 240.141 40.5156 245.473 34.8192 249.4C28.6492 253.75 20.4292 256.75 12.4892 255.45L11.9392 255.33C13.2951 257.224 15.0148 258.83 16.9979 260.052C18.9809 261.274 21.1876 262.09 23.4892 262.45C31.4292 263.74 39.5992 260.74 45.8192 256.38C51.5156 252.453 56.1004 247.121 59.1292 240.9C66.4592 225.36 61.3092 207.9 60.5792 191.17C60.4892 189.22 60.5792 187.1 61.9492 185.57C64.0692 183.28 68.0692 183.34 71.4892 183.04C80.3392 182.26 88.4892 177.3 92.2392 170.46C99.4092 157.3 91.0592 138.91 103.589 129.01C119.359 116.55 142.059 136.25 153.769 123.46C154.888 122.215 155.797 120.797 156.459 119.26C160.879 109.23 153.869 96.75 141.899 93.22Z" fill="black"/>
</svg>
